<svg width="62" height="10" viewBox="0 0 62 10" fill="none" xmlns="http://www.w3.org/2000/svg">
<path d="M0 5C0 2.23858 2.23858 0 5 0C7.76142 0 10 2.23858 10 5C10 7.76142 7.76142 10 5 10C2.23858 10 0 7.76142 0 5Z" fill="white"/>
<path d="M26 5C26 2.23858 28.2386 0 31 0C33.7614 0 36 2.23858 36 5C36 7.76142 33.7614 10 31 10C28.2386 10 26 7.76142 26 5Z" fill="#9E77ED"/>
<path d="M52 5C52 2.23858 54.2386 0 57 0C59.7614 0 62 2.23858 62 5C62 7.76142 59.7614 10 57 10C54.2386 10 52 7.76142 52 5Z" fill="#9E77ED"/>
</svg>
