<svg width="40" height="44" viewBox="0 0 40 44" fill="none" xmlns="http://www.w3.org/2000/svg">
<path id="Vector" d="M22.5734 29.7593C22.5734 24.7386 26.6366 20.722 31.6027 20.722H34.9436C37.7427 20.722 40 18.4398 40 15.61H31.6027C30.8804 15.61 30.158 15.7012 29.526 15.7925C27.991 15.9751 27.5395 13.7842 28.9842 13.3278C29.7968 13.0539 30.6998 12.9627 31.6027 12.9627H34.9436C37.7427 12.9627 40 10.6805 40 7.85063H31.6027C30.6998 7.85063 29.8871 7.94192 29.0745 8.12449C27.6298 8.39835 26.9977 6.29876 28.4424 5.75104C29.4357 5.3859 30.5192 5.11204 31.693 5.11204H34.9436C37.7427 5.11204 40 2.82988 40 0H31.693C23.9278 0 17.4266 6.29876 17.5169 14.0581C17.6072 19.1701 13.544 23.278 8.48759 23.278H5.32731C2.52822 23.278 0.270881 25.5602 0.270881 28.39H8.39729C9.30023 28.39 10.1129 28.2988 10.9255 28.1162C12.3702 27.8423 13.0023 29.9419 11.5576 30.4896C10.5643 30.8548 9.48081 31.1286 8.307 31.1286H5.14673C2.34763 31.1286 0.0902929 33.4108 0.0902929 36.2407H8.2167C8.93905 36.2407 9.6614 36.1494 10.2935 36.0581C11.8284 35.8755 12.2799 38.0664 10.8352 38.5228C10.0226 38.7967 9.11964 38.888 8.2167 38.888H5.05643C2.25734 38.888 0 41.1701 0 44H8.12641C16.2528 44 22.5734 37.61 22.5734 29.7593Z" fill="#7F56D9"/>
</svg>
