<svg width="24" height="24" viewBox="0 0 24 24" fill="none" xmlns="http://www.w3.org/2000/svg">
<g id="Check icon">
<path d="M0 12C0 5.37258 5.37258 0 12 0C18.6274 0 24 5.37258 24 12C24 18.6274 18.6274 24 12 24C5.37258 24 0 18.6274 0 12Z" fill="#F9F5FF"/>
<path id="Icon" fill-rule="evenodd" clip-rule="evenodd" d="M17.0964 7.39004L9.9364 14.3L8.0364 12.27C7.6864 11.94 7.1364 11.92 6.7364 12.2C6.3464 12.49 6.2364 13 6.4764 13.41L8.7264 17.07C8.9464 17.41 9.3264 17.62 9.7564 17.62C10.1664 17.62 10.5564 17.41 10.7764 17.07C11.1364 16.6 18.0064 8.41004 18.0064 8.41004C18.9064 7.49004 17.8164 6.68004 17.0964 7.38004V7.39004Z" fill="#7F56D9"/>
</g>
</svg>
